<svg width="80" height="80" viewBox="0 0 80 80" fill="none" xmlns="http://www.w3.org/2000/svg">
<path opacity="0.3" d="M80 40C80 62.0914 62.0914 80 40 80C17.9086 80 0 62.0914 0 40C0 17.9086 17.9086 0 40 0C62.0914 0 80 17.9086 80 40ZM10.9071 40C10.9071 56.0675 23.9325 69.0929 40 69.0929C56.0675 69.0929 69.0929 56.0675 69.0929 40C69.0929 23.9325 56.0675 10.9071 40 10.9071C23.9325 10.9071 10.9071 23.9325 10.9071 40Z" fill="#2F2E30"/>
<circle cx="40" cy="40" r="29" fill="#272EA7"/>
<path d="M40.4272 49.7734H40.9272C41.4736 49.7734 42.0005 49.5834 42.4194 49.2402L42.5923 49.084C43.0338 48.6425 43.2817 48.0433 43.2817 47.4189C43.2817 46.8726 43.0918 46.3457 42.7485 45.9268L42.5923 45.7539C42.1507 45.3123 41.5517 45.0645 40.9272 45.0645H40.4272V49.7734ZM39.0728 39.501C38.5263 39.501 37.9996 39.6908 37.5806 40.0342L37.4077 40.1904C36.9663 40.632 36.7183 41.2311 36.7183 41.8555C36.7184 42.4796 36.9664 43.0781 37.4077 43.5195C37.8493 43.9611 38.4483 44.2099 39.0728 44.21H39.5728V39.501H39.0728ZM39.5728 45.0645H39.0728C38.2751 45.0644 37.508 44.7671 36.9194 44.2344L36.8032 44.124C36.2017 43.5223 35.8639 42.7063 35.8638 41.8555C35.8638 41.0576 36.1608 40.2898 36.6938 39.7012L36.8032 39.5859C37.405 38.9841 38.2217 38.6465 39.0728 38.6465H39.5728V37.7188H40.4272V38.6465H40.9272C41.5081 38.6465 42.0766 38.8034 42.5728 39.0996L42.7808 39.2354C43.2547 39.5705 43.6278 40.0268 43.8618 40.5547L43.9536 40.7861C43.9629 40.8125 43.9692 40.8397 43.9731 40.8672L43.9771 40.9502C43.9741 41.0062 43.9602 41.0617 43.936 41.1123C43.924 41.1374 43.9097 41.1614 43.8931 41.1836L43.8364 41.2461C43.8157 41.2647 43.7929 41.2807 43.769 41.2949L43.6929 41.3311C43.64 41.3497 43.5838 41.3575 43.5278 41.3545C43.4997 41.353 43.4719 41.3487 43.4448 41.3418L43.3667 41.3135C43.29 41.2768 43.2259 41.2185 43.1831 41.1465L43.1479 41.0703C43.0058 40.6686 42.7574 40.3136 42.4312 40.043L42.2866 39.9326C41.889 39.6516 41.4142 39.5009 40.9272 39.501H40.4272V44.21H40.9272C41.7783 44.21 42.595 44.5476 43.1968 45.1494C43.7985 45.7512 44.1362 46.5679 44.1362 47.4189C44.1361 48.2698 43.7983 49.0858 43.1968 49.6875C42.595 50.2893 41.7783 50.6279 40.9272 50.6279H40.4272V51.5547H39.5728V50.6279H39.0728C38.4918 50.6279 37.9234 50.4701 37.4272 50.1738L37.2192 50.0391C36.7451 49.7038 36.3723 49.2468 36.1382 48.7188L36.0464 48.4883L36.0415 48.4746L36.019 48.3926C36.0143 48.3646 36.0123 48.3361 36.0132 48.3076C36.0141 48.2789 36.0183 48.2504 36.0249 48.2227L36.0522 48.1426C36.0641 48.1168 36.0786 48.0921 36.0952 48.0693L36.1528 48.0059C36.1741 47.9865 36.1966 47.9688 36.2212 47.9541L36.2983 47.918C36.325 47.9086 36.3525 47.9024 36.3804 47.8984L36.4663 47.8945C36.5232 47.898 36.5792 47.9132 36.6304 47.9385C36.6559 47.9512 36.6802 47.966 36.7026 47.9834L36.7642 48.042C36.7828 48.0637 36.7991 48.0875 36.813 48.1123L36.8472 48.1904L36.8491 48.1973L36.8521 48.2041C37.1765 49.1188 38.0478 49.7734 39.0728 49.7734H39.5728V45.0645Z" fill="#FAFAFA" stroke="#FAFAFA"/>
<path d="M40.0361 23.8125C43.6945 23.8125 47.0515 24.8968 49.2852 25.9199L49.7168 26.123L49.8447 26.1855C50.284 26.4029 50.6638 26.6115 50.9766 26.7979L47.8457 31.376L47.6143 31.7139L47.9014 32.0078C49.8396 33.9894 51.6698 36.5199 52.9805 39.1953C54.2934 41.8754 55.0683 44.6658 54.9414 47.1768C54.8155 49.6669 53.8056 51.8896 51.5166 53.5068C49.2054 55.1396 45.538 56.1914 40.0361 56.1914C34.5332 56.1914 30.8546 55.1578 28.5283 53.5469C26.2249 51.9517 25.1988 49.7576 25.0576 47.2891C24.9153 44.7986 25.6757 42.0184 26.9834 39.3232C28.2888 36.6331 30.1227 34.0625 32.0811 32.002L32.3594 31.71L32.1328 31.377L29.0225 26.7998L29.543 26.5098L29.5449 26.5088L30.1611 26.1934L30.2197 26.165C32.4563 25.079 36.0841 23.8125 40.0361 23.8125ZM46.957 32.7012C42.6083 34.3829 37.3703 34.383 33.0215 32.7031L32.7061 32.5811L32.4756 32.8291C30.7714 34.666 29.1778 36.8938 27.9844 39.2275L27.751 39.6963C26.5598 42.152 25.8686 44.6178 25.8955 46.8066L25.9102 47.2402C26.0296 49.3354 26.8385 51.1716 28.6396 52.5713L29.0127 52.8447C31.1392 54.3167 34.6197 55.3369 40.0352 55.3369C45.1083 55.3369 48.4721 54.4248 50.6104 53.083L51.0215 52.8086C52.9431 51.4504 53.8549 49.638 54.0557 47.5537L54.0869 47.1328C54.1965 44.9611 53.5737 42.5026 52.4443 40.0596L52.2119 39.5703L52.2109 39.5684L51.9766 39.1074C50.7861 36.8144 49.2793 34.6989 47.5 32.8232L47.2695 32.5801L46.957 32.7012ZM48.7627 27.084C46.4933 27.2474 43.8596 27.7328 41.2637 28.4229L40.1553 28.7305C38.2952 29.2678 36.2165 29.2301 34.2295 28.9033L33.834 28.834C33.3047 28.7359 32.7788 28.6197 32.2578 28.4844L30.9727 28.1504L31.7188 29.249L33.499 31.8701L33.5908 32.0059L33.7451 32.0605C37.6692 33.4575 42.2998 33.4576 46.2246 32.0625L46.3779 32.0078L46.4697 31.873L49.2119 27.8652L49.7969 27.0098L48.7627 27.084ZM40.0352 24.667C36.9585 24.667 34.088 25.4704 31.9893 26.3145L31.5801 26.4834L30.3008 27.0264L31.6328 27.4229C32.2006 27.5918 32.7884 27.7443 33.3867 27.873L33.9873 27.9932H33.9883C35.8959 28.3445 37.8473 28.4232 39.5742 28L39.917 27.9092L39.918 27.9082C41.8862 27.3348 43.8882 26.8845 45.9121 26.5586L45.9766 25.5859C44.2351 25.0616 42.1902 24.667 40.0352 24.667Z" fill="#FAFAFA" stroke="#FAFAFA"/>
</svg>
