<svg width="80" height="80" viewBox="0 0 80 80" fill="none" xmlns="http://www.w3.org/2000/svg">
<path opacity="0.3" d="M80 40C80 62.0914 62.0914 80 40 80C17.9086 80 0 62.0914 0 40C0 17.9086 17.9086 0 40 0C62.0914 0 80 17.9086 80 40ZM10.9071 40C10.9071 56.0675 23.9325 69.0929 40 69.0929C56.0675 69.0929 69.0929 56.0675 69.0929 40C69.0929 23.9325 56.0675 10.9071 40 10.9071C23.9325 10.9071 10.9071 23.9325 10.9071 40Z" fill="#2F2E30"/>
<circle cx="40" cy="40" r="29" fill="#272EA7"/>
<path d="M31.6665 31.6692V28.3358C31.6665 27.3706 31.9459 26.4261 32.4709 25.6161C32.996 24.8062 33.7442 24.1656 34.6253 23.7716C35.5064 23.3775 36.4827 23.2469 37.4364 23.3956C38.3901 23.5442 39.2804 23.9657 39.9998 24.6092C40.7193 23.9657 41.6095 23.5442 42.5632 23.3956C43.5169 23.2469 44.4933 23.3775 45.3744 23.7716C46.2555 24.1656 47.0037 24.8062 47.5287 25.6161C48.0538 26.4261 48.3331 27.3706 48.3332 28.3358V31.6692H50.8332C51.4962 31.6692 52.1321 31.9326 52.6009 32.4014C53.0698 32.8702 53.3332 33.5061 53.3332 34.1692V50.8442C53.3332 52.389 52.7195 53.8707 51.6271 54.9631C50.5347 56.0555 49.0531 56.6692 47.5082 56.6692H33.3332C31.5651 56.6692 29.8694 55.9668 28.6191 54.7165C27.3689 53.4663 26.6665 51.7706 26.6665 50.0025V34.1692C26.6665 33.5061 26.9299 32.8702 27.3987 32.4014C27.8676 31.9326 28.5035 31.6692 29.1665 31.6692H31.6665ZM42.7248 54.1692C42.0449 53.1938 41.6813 52.0331 41.6832 50.8442V34.1692H29.1665V50.0025C29.1665 50.5497 29.2743 51.0915 29.4837 51.597C29.6931 52.1025 30 52.5619 30.3869 52.9488C30.7738 53.3357 31.2331 53.6426 31.7387 53.852C32.2442 54.0614 32.786 54.1692 33.3332 54.1692H42.7248ZM39.1665 31.6692V28.3358C39.1665 27.6728 38.9031 27.0369 38.4343 26.5681C37.9654 26.0992 37.3295 25.8358 36.6665 25.8358C36.0035 25.8358 35.3676 26.0992 34.8987 26.5681C34.4299 27.0369 34.1665 27.6728 34.1665 28.3358V31.6692H39.1665ZM41.6665 31.6692H45.8332V28.3358C45.8332 27.8212 45.6745 27.3191 45.3786 26.8981C45.0827 26.4771 44.664 26.1576 44.1798 25.9833C43.6956 25.809 43.1695 25.7884 42.6731 25.9243C42.1768 26.0602 41.7344 26.3459 41.4065 26.7425C41.5748 27.2425 41.6665 27.7792 41.6665 28.3358V31.6692ZM44.1832 50.8442C44.1832 51.726 44.5335 52.5717 45.157 53.1953C45.7806 53.8189 46.6263 54.1692 47.5082 54.1692C48.39 54.1692 49.2357 53.8189 49.8593 53.1953C50.4829 52.5717 50.8332 51.726 50.8332 50.8442V34.1692H44.1832V50.8442Z" fill="white"/>
</svg>
