<svg width="102" height="45" viewBox="0 0 102 45" fill="none" xmlns="http://www.w3.org/2000/svg">
<rect width="102" height="45" rx="5" fill="#272EA7" fill-opacity="0.4"/>
<path d="M23.242 22.264C23.242 20.6493 23.5313 19.3847 24.11 18.47C24.698 17.5553 25.6687 17.098 27.022 17.098C28.3753 17.098 29.3413 17.5553 29.92 18.47C30.508 19.3847 30.802 20.6493 30.802 22.264C30.802 23.888 30.508 25.162 29.92 26.086C29.3413 27.01 28.3753 27.472 27.022 27.472C25.6687 27.472 24.698 27.01 24.11 26.086C23.5313 25.162 23.242 23.888 23.242 22.264ZM28.87 22.264C28.87 21.5733 28.8233 20.9947 28.73 20.528C28.646 20.052 28.4687 19.6647 28.198 19.366C27.9367 19.0673 27.5447 18.918 27.022 18.918C26.4993 18.918 26.1027 19.0673 25.832 19.366C25.5707 19.6647 25.3933 20.052 25.3 20.528C25.216 20.9947 25.174 21.5733 25.174 22.264C25.174 22.9733 25.216 23.5707 25.3 24.056C25.384 24.532 25.5613 24.9193 25.832 25.218C26.1027 25.5073 26.4993 25.652 27.022 25.652C27.5447 25.652 27.9413 25.5073 28.212 25.218C28.4827 24.9193 28.66 24.532 28.744 24.056C28.828 23.5707 28.87 22.9733 28.87 22.264ZM33.1088 25.288C34.0048 24.5413 34.7188 23.9207 35.2508 23.426C35.7828 22.922 36.2261 22.3993 36.5808 21.858C36.9354 21.3167 37.1128 20.7847 37.1128 20.262C37.1128 19.786 37.0008 19.4127 36.7768 19.142C36.5528 18.8713 36.2074 18.736 35.7408 18.736C35.2741 18.736 34.9148 18.8947 34.6628 19.212C34.4108 19.52 34.2801 19.9447 34.2708 20.486H32.3668C32.4041 19.366 32.7354 18.5167 33.3608 17.938C33.9954 17.3593 34.7981 17.07 35.7688 17.07C36.8328 17.07 37.6494 17.3547 38.2188 17.924C38.7881 18.484 39.0728 19.226 39.0728 20.15C39.0728 20.878 38.8768 21.5733 38.4848 22.236C38.0928 22.8987 37.6448 23.4773 37.1408 23.972C36.6368 24.4573 35.9788 25.0453 35.1668 25.736H39.2968V27.36H32.3808V25.904L33.1088 25.288ZM41.8238 27.598C41.4692 27.598 41.1752 27.4907 40.9418 27.276C40.7178 27.052 40.6058 26.7767 40.6058 26.45C40.6058 26.1233 40.7178 25.8527 40.9418 25.638C41.1752 25.414 41.4692 25.302 41.8238 25.302C42.1692 25.302 42.4538 25.414 42.6778 25.638C42.9018 25.8527 43.0138 26.1233 43.0138 26.45C43.0138 26.7767 42.9018 27.052 42.6778 27.276C42.4538 27.4907 42.1692 27.598 41.8238 27.598ZM41.8238 21.802C41.4692 21.802 41.1752 21.6947 40.9418 21.48C40.7178 21.256 40.6058 20.9807 40.6058 20.654C40.6058 20.3273 40.7178 20.0567 40.9418 19.842C41.1752 19.618 41.4692 19.506 41.8238 19.506C42.1692 19.506 42.4538 19.618 42.6778 19.842C42.9018 20.0567 43.0138 20.3273 43.0138 20.654C43.0138 20.9807 42.9018 21.256 42.6778 21.48C42.4538 21.6947 42.1692 21.802 41.8238 21.802ZM45.2256 25.288C46.1216 24.5413 46.8356 23.9207 47.3676 23.426C47.8996 22.922 48.3429 22.3993 48.6976 21.858C49.0522 21.3167 49.2296 20.7847 49.2296 20.262C49.2296 19.786 49.1176 19.4127 48.8936 19.142C48.6696 18.8713 48.3242 18.736 47.8576 18.736C47.3909 18.736 47.0316 18.8947 46.7796 19.212C46.5276 19.52 46.3969 19.9447 46.3876 20.486H44.4836C44.5209 19.366 44.8522 18.5167 45.4776 17.938C46.1122 17.3593 46.9149 17.07 47.8856 17.07C48.9496 17.07 49.7662 17.3547 50.3356 17.924C50.9049 18.484 51.1896 19.226 51.1896 20.15C51.1896 20.878 50.9936 21.5733 50.6016 22.236C50.2096 22.8987 49.7616 23.4773 49.2576 23.972C48.7536 24.4573 48.0956 25.0453 47.2836 25.736H51.4136V27.36H44.4976V25.904L45.2256 25.288ZM55.1166 24.63C55.1913 25.0407 55.3593 25.358 55.6206 25.582C55.8913 25.7967 56.2506 25.904 56.6986 25.904C57.2773 25.904 57.6973 25.666 57.9586 25.19C58.22 24.7047 58.3506 23.8927 58.3506 22.754C58.136 23.0527 57.8326 23.286 57.4406 23.454C57.058 23.622 56.6426 23.706 56.1946 23.706C55.5973 23.706 55.056 23.5847 54.5706 23.342C54.0946 23.09 53.7166 22.7213 53.4366 22.236C53.1566 21.7413 53.0166 21.144 53.0166 20.444C53.0166 19.408 53.3246 18.5867 53.9406 17.98C54.5566 17.364 55.3966 17.056 56.4606 17.056C57.786 17.056 58.7193 17.4807 59.2606 18.33C59.8113 19.1793 60.0866 20.458 60.0866 22.166C60.0866 23.3793 59.9793 24.3733 59.7646 25.148C59.5593 25.9227 59.2 26.5107 58.6866 26.912C58.1826 27.3133 57.492 27.514 56.6146 27.514C55.924 27.514 55.336 27.3833 54.8506 27.122C54.3653 26.8513 53.992 26.5013 53.7306 26.072C53.4786 25.6333 53.334 25.1527 53.2966 24.63H55.1166ZM56.6006 22.11C57.086 22.11 57.4686 21.9607 57.7486 21.662C58.0286 21.3633 58.1686 20.962 58.1686 20.458C58.1686 19.9073 58.0193 19.4827 57.7206 19.184C57.4313 18.876 57.0346 18.722 56.5306 18.722C56.0266 18.722 55.6253 18.8807 55.3266 19.198C55.0373 19.506 54.8926 19.9167 54.8926 20.43C54.8926 20.9247 55.0326 21.3307 55.3126 21.648C55.602 21.956 56.0313 22.11 56.6006 22.11ZM62.9043 27.598C62.5496 27.598 62.2556 27.4907 62.0223 27.276C61.7983 27.052 61.6863 26.7767 61.6863 26.45C61.6863 26.1233 61.7983 25.8527 62.0223 25.638C62.2556 25.414 62.5496 25.302 62.9043 25.302C63.2496 25.302 63.5343 25.414 63.7583 25.638C63.9823 25.8527 64.0943 26.1233 64.0943 26.45C64.0943 26.7767 63.9823 27.052 63.7583 27.276C63.5343 27.4907 63.2496 27.598 62.9043 27.598ZM62.9043 21.802C62.5496 21.802 62.2556 21.6947 62.0223 21.48C61.7983 21.256 61.6863 20.9807 61.6863 20.654C61.6863 20.3273 61.7983 20.0567 62.0223 19.842C62.2556 19.618 62.5496 19.506 62.9043 19.506C63.2496 19.506 63.5343 19.618 63.7583 19.842C63.9823 20.0567 64.0943 20.3273 64.0943 20.654C64.0943 20.9807 63.9823 21.256 63.7583 21.48C63.5343 21.6947 63.2496 21.802 62.9043 21.802ZM65.452 19.1V17.294H68.826V27.5H66.81V19.1H65.452ZM77.8223 18.988H73.2863V21.382C73.4823 21.1393 73.7623 20.9433 74.1263 20.794C74.4903 20.6353 74.8776 20.556 75.2883 20.556C76.035 20.556 76.6463 20.7193 77.1223 21.046C77.5983 21.3727 77.9436 21.7927 78.1583 22.306C78.373 22.81 78.4803 23.3513 78.4803 23.93C78.4803 25.0033 78.1723 25.8667 77.5563 26.52C76.9496 27.1733 76.0816 27.5 74.9523 27.5C73.8883 27.5 73.039 27.234 72.4043 26.702C71.7696 26.17 71.4103 25.4747 71.3263 24.616H73.2303C73.3143 24.9893 73.501 25.288 73.7903 25.512C74.089 25.736 74.467 25.848 74.9243 25.848C75.475 25.848 75.8903 25.6753 76.1703 25.33C76.4503 24.9847 76.5903 24.5273 76.5903 23.958C76.5903 23.3793 76.4456 22.9407 76.1563 22.642C75.8763 22.334 75.461 22.18 74.9103 22.18C74.5183 22.18 74.1916 22.278 73.9303 22.474C73.669 22.67 73.4823 22.9313 73.3703 23.258H71.4943V17.266H77.8223V18.988Z" fill="#FEFEFE"/>
</svg>
