<svg width="388" height="102" viewBox="0 0 388 102" fill="none" xmlns="http://www.w3.org/2000/svg">
<path d="M4.08165 0.501334C2.70167 0.45624 1.54643 1.53837 1.50133 2.91835L0.766486 25.4063C0.721392 26.7863 1.80353 27.9416 3.1835 27.9867C4.56348 28.0318 5.71872 26.9496 5.76382 25.5696L6.41702 5.58032L26.4063 6.23351C27.7863 6.27861 28.9416 5.19647 28.9867 3.8165C29.0318 2.43652 27.9496 1.28128 26.5696 1.23618L4.08165 0.501334ZM41 42.4998L39.1754 44.2089L39.3943 44.4426L39.665 44.6135L41 42.4998ZM73.4563 62.9985L72.1213 65.1122L73.4563 62.9985ZM2.17544 4.70909L5.25877 8.00074L8.90789 4.58256L5.82456 1.29091L2.17544 4.70909ZM11.4254 14.584L17.5921 21.1673L21.2412 17.7492L15.0746 11.1659L11.4254 14.584ZM23.7588 27.7506L29.9254 34.3339L33.5746 30.9158L27.4079 24.3325L23.7588 27.7506ZM36.0921 40.9172L39.1754 44.2089L42.8246 40.7907L39.7412 37.4991L36.0921 40.9172ZM39.665 44.6135L43.7221 47.1759L46.392 42.9484L42.335 40.3861L39.665 44.6135ZM51.8361 52.3005L59.9502 57.4252L62.6202 53.1978L54.5061 48.0731L51.8361 52.3005ZM68.0643 62.5499L72.1213 65.1122L74.7913 60.8848L70.7342 58.3225L68.0643 62.5499ZM72.1213 65.1122C73.5583 66.0198 75.0034 66.9106 76.4563 67.7844L79.0333 63.4997C77.6116 62.6446 76.1975 61.7729 74.7913 60.8848L72.1213 65.1122ZM85.2938 72.84C88.2813 74.4635 91.2982 76.0181 94.3421 77.5036L96.535 73.0102C93.5566 71.5566 90.6045 70.0354 87.6811 68.4468L85.2938 72.84ZM103.588 81.7681C106.705 83.1236 109.847 84.4087 113.011 85.6231L114.802 80.9552C111.706 79.7669 108.632 78.5094 105.583 77.183L103.588 81.7681ZM122.593 89.0625C125.815 90.1399 129.057 91.1456 132.317 92.0794L133.694 87.2727C130.504 86.359 127.332 85.3749 124.179 84.3206L122.593 89.0625ZM142.163 94.6679C145.465 95.4593 148.783 96.178 152.114 96.8238L153.065 91.9152C149.806 91.2833 146.56 90.58 143.328 89.8056L142.163 94.6679ZM162.148 98.5425C165.505 99.0423 168.873 99.4686 172.249 99.8212L172.768 94.8482C169.465 94.5032 166.169 94.086 162.884 93.597L162.148 98.5425ZM182.395 100.657C185.781 100.862 189.174 100.992 192.569 101.049L192.652 96.0496C189.33 95.9944 186.01 95.8665 182.697 95.6663L182.395 100.657ZM202.749 100.996C206.139 100.904 209.529 100.738 212.918 100.497L212.564 95.5095C209.248 95.7449 205.931 95.9074 202.614 95.9974L202.749 100.996ZM223.056 99.554C226.422 99.1664 229.785 98.7046 233.141 98.1685L232.352 93.2311C229.068 93.7557 225.778 94.2075 222.484 94.5868L223.056 99.554ZM243.158 96.3427C246.476 95.6625 249.786 94.9087 253.083 94.081L251.866 89.2314C248.639 90.0414 245.401 90.779 242.154 91.4445L243.158 96.3427ZM262.902 91.3871C264.527 90.9028 266.148 90.4003 267.766 89.8795L266.234 85.12C264.651 85.6297 263.064 86.1215 261.474 86.5953L262.902 91.3871ZM267.878 89.8406L272.878 87.9656L271.122 83.2839L266.122 85.1589L267.878 89.8406ZM282.878 84.2156L292.878 80.4656L291.122 75.7839L281.122 79.5339L282.878 84.2156ZM302.878 76.7156L312.878 72.9656L311.122 68.2839L301.122 72.0339L302.878 76.7156ZM322.878 69.2156L332.878 65.4656L331.122 60.784L321.122 64.534L322.878 69.2156ZM342.878 61.7156L352.878 57.9656L351.122 53.284L341.122 57.034L342.878 61.7156ZM362.878 54.2156L372.878 50.4656L371.122 45.784L361.122 49.534L362.878 54.2156ZM382.878 46.7156L387.878 44.8406L386.122 40.159L381.122 42.034L382.878 46.7156Z" fill="#272EA7"/>
</svg>
