<?xml version="1.0" encoding="utf-8"?>
<svg width="658" height="150" viewBox="0 0 658 150" fill="none" xmlns="http://www.w3.org/2000/svg">
  <path id="Wave" d="M424.154 1.97217C423.906 0.824249 422.892 0.00369263 421.718 0C420.543 -0.00366211 419.525 0.810547 419.27 1.95688L399.061 92.7564L391.835 71.0579C391.486 70.01 390.491 69.3153 389.387 69.349C388.283 69.3827 387.332 70.1369 387.047 71.2042L380.965 94.0325L369.626 64.6436C369.225 63.6047 368.185 62.9562 367.076 63.0529C365.967 63.1497 365.055 63.9684 364.84 65.0609L351.273 134.027L329.445 13.4027C329.226 12.1959 328.165 11.3257 326.939 11.3483C325.712 11.3708 324.684 12.2795 324.51 13.4936L313.817 88.1898L305.145 64.6783C304.758 63.6284 303.72 62.9638 302.604 63.0511C301.489 63.1384 300.567 63.9563 300.348 65.0536L290.927 112.203L279.065 41.1752C278.863 39.9698 277.82 39.0867 276.598 39.087C275.376 39.0873 274.333 39.9709 274.133 41.1763L265.399 93.6322L256.703 74.5919C256.252 73.6041 255.215 73.0205 254.136 73.1476C253.058 73.2747 252.185 74.0833 251.976 75.1489L241.383 129.111L233.107 23.8041C233.01 22.565 232.017 21.5856 230.776 21.5052C229.536 21.4249 228.425 22.268 228.168 23.4842L214.428 88.6486L208.614 70.7477C208.262 69.6635 207.221 68.9548 206.083 69.0247C204.945 69.0946 203.998 69.9255 203.782 71.0447L192.459 129.51L178.214 58.2698C178.002 57.2082 177.13 56.4039 176.055 56.2772C174.98 56.1505 173.946 56.7302 173.492 57.7134L158.829 89.5217L2.5 89.5217C1.11929 89.5217 0 90.641 0 92.0217C0 93.4025 1.11929 94.5217 2.5 94.5217L160.429 94.5217C161.405 94.5217 162.291 93.9543 162.7 93.0684L174.817 66.7827L190.047 142.947C190.282 144.118 191.312 144.96 192.506 144.956C193.701 144.953 194.726 144.105 194.953 142.932L206.849 81.5012L212.565 99.0984C212.915 100.175 213.945 100.883 215.075 100.823C216.206 100.762 217.155 99.9498 217.389 98.8419L229.481 41.4922L237.829 147.696C237.927 148.942 238.929 149.924 240.177 149.996C241.424 150.068 242.533 149.208 242.774 147.982L255.385 83.7403L264.248 103.147C264.704 104.147 265.76 104.731 266.85 104.587C267.94 104.443 268.807 103.604 268.988 102.519L276.603 56.7866L288.241 126.477C288.44 127.667 289.46 128.546 290.667 128.565C291.874 128.584 292.922 127.738 293.158 126.555L303.517 74.7123L312.546 99.1913C312.943 100.265 314.017 100.933 315.155 100.812C316.294 100.691 317.205 99.8133 317.367 98.6803L327.273 29.477L348.71 147.945C348.924 149.128 349.949 149.991 351.151 150C352.352 150.009 353.391 149.162 353.623 147.983L368.076 74.5163L379.069 103.009C379.459 104.019 380.455 104.663 381.536 104.605C382.617 104.547 383.538 103.799 383.817 102.752L389.729 80.5604L397.168 102.899C397.523 103.965 398.546 104.663 399.668 104.605C400.79 104.548 401.736 103.749 401.98 102.652L421.673 14.1715L449.498 142.984C449.753 144.164 450.814 144.993 452.02 144.955C453.226 144.917 454.233 144.023 454.413 142.829L464.17 78.1304L655.5 78.1304C656.881 78.1304 658 77.0111 658 75.6304C658 74.2497 656.881 73.1304 655.5 73.1304L462.019 73.1304C460.782 73.1304 459.731 74.0347 459.546 75.2577L451.504 128.59L424.154 1.97217L424.154 1.97217ZM192.499 142.456L194.953 143.426L192.499 142.458L190.047 143.456L192.499 142.456L192.499 142.456Z" fill="#272EA7" fill-rule="evenodd" fill-opacity="0.4" />
</svg>