<svg width="30" height="30" viewBox="0 0 30 30" fill="none" xmlns="http://www.w3.org/2000/svg">
<g clip-path="url(#clip0_412_5928)">
<path d="M29.0602 10.2353C26.6024 11.4706 25.0843 13.5882 25.0843 15.9412C25.0843 18.5882 27.0361 21 30 22C29.4217 23.5294 28.5542 24.9412 27.4699 26.2353C25.8795 28.0588 24.2169 29.9412 21.759 29.9412C19.3012 29.9412 18.5783 28.7647 15.6867 28.7647C12.8675 28.7647 11.8554 30 9.54217 30C7.22892 30 5.63855 28.2941 3.83133 26.1765C1.44578 23.2353 0.0722892 19.8235 0 16.2353C0 10.4118 4.62651 7.29412 9.25301 7.29412C11.7108 7.29412 13.7349 8.58824 15.253 8.58824C16.6988 8.58824 19.012 7.23529 21.759 7.23529C24.6506 7.17647 27.3976 8.29412 29.0602 10.2353ZM20.4578 4.76471C21.6867 3.58824 22.3373 2.11765 22.4096 0.588235C22.4096 0.411765 22.4096 0.176471 22.3373 0C20.241 0.176471 18.2892 1 16.9157 2.29412C15.6867 3.41176 14.9639 4.82353 14.8916 6.35294C14.8916 6.52941 14.8916 6.70588 14.9639 6.88235C15.1084 6.88235 15.3253 6.94118 15.4699 6.94118C17.4217 6.82353 19.2289 6 20.4578 4.76471Z" fill="black"/>
</g>
<defs>
<clipPath id="clip0_412_5928">
<rect width="30" height="30" fill="white"/>
</clipPath>
</defs>
</svg>
