<svg width="117" height="311" viewBox="0 0 117 311" fill="none" xmlns="http://www.w3.org/2000/svg">
<path d="M88.7595 48.88L90.8193 49.4C101.247 52.0015 103.719 60.3553 102.249 70.6694C102.305 72.3359 102.62 73.9493 103.192 75.5098C110.909 91.745 106.909 92.7052 111.48 106.411C111.544 106.578 111.543 106.689 111.543 106.855C113.206 109.315 112.453 130.964 111.033 144.389C111.096 144.667 111.095 144.889 111.029 145.166C110.425 150.047 110.299 149.49 110.999 151.163C111.7 152.836 114.428 161.525 114.49 162.026C114.615 162.804 114.611 163.582 114.478 164.302C113.95 166.74 113.42 169.734 112.259 170C111.607 171.493 110.57 172.482 109.925 172.754C108.369 174.46 107.913 175.51 107.27 175.282C106.626 175.053 106.372 174.385 106.632 173.832C106.632 173.832 106.632 173.832 106.633 173.776C106.894 173.057 106.569 173.609 106.049 174.437C105.4 175.43 104.815 176.479 104.362 176.697C102.498 175.735 103.733 173.692 104.836 172.148C105.485 171.266 104.513 172.367 103.345 174.022C102.306 175.511 101.268 176.833 101.011 176.664C98.5695 175.196 101.685 170.84 102.203 170.345C102.146 168.901 102.153 167.513 102.224 166.07C101.713 165.121 101.335 163.507 101.089 161.116C100.826 162.058 100.435 162.942 100.044 163.827C99.4614 164.377 101.048 169.279 96.6658 169.236C96.6753 167.348 96.6883 164.738 96.6972 162.961C96.7044 161.518 97.2385 157.802 97.2457 156.359C97.2529 154.915 101.01 151.176 101.204 151.011C101.344 148.736 101.227 146.402 100.98 144.123C100.981 144.068 100.981 143.957 101.046 143.902C100.235 138.452 98.2652 132.879 96.9291 129.423C95.5929 125.967 93.1775 119.224 93.6525 114.454C93.5889 114.286 93.5255 114.064 93.5908 113.898C93.5338 112.398 93.7349 110.845 94.2577 109.406C89.2031 102.027 86.4091 93.6696 86.2585 85.1165C84.6818 91.0982 80.003 98.8263 79.98 103.435C79.9522 108.988 81.8634 113.449 81.8451 117.114C81.834 119.335 81.1096 122.437 79.6713 126.533C82.2269 131 92.7534 152.538 94.4036 170.546C95.9924 187.943 96.3208 199.607 94.1993 211.47C98.9411 216.958 100.854 233.969 97.5403 252.262C96.2817 259.08 97.8833 273.922 99.3278 281.488C100.772 289.054 91.0408 289.014 87.6363 286.76C85.7093 285.463 82.6351 281.602 84.0015 279.005C83.9006 273.396 81.7948 256.272 76.7005 243.949C74.0265 237.37 74.2086 226.71 74.5599 220.883C74.4972 220.55 74.3699 220.215 74.3071 219.881C73.5496 216.709 74.0057 215.714 74.0793 213.882C71.977 208.974 66.4769 200.48 64.4518 193.019C62.7433 186.672 61.168 179.493 59.5968 171.481L57.9859 171.41C57.3954 173.514 56.9334 175.675 56.6001 177.893C56.1238 182.941 56.855 191.389 47.9115 214.235C47.8954 217.456 49.0535 217.856 48.5829 221.738C48.4482 222.903 48.2494 224.012 47.9213 225.175C49.82 232.135 51.6951 243.814 45.7779 254.307C41.876 261.321 39.6355 271.183 40.962 276.582C42.6251 279.098 41.8232 284.809 40.076 286.236C36.9057 288.704 24.7335 286.974 26.2549 279.159C27.7762 271.344 27.8353 259.517 25.3038 250.218C23.0248 241.977 23.8472 232.157 25.8976 221.626C25.8996 221.237 25.9015 220.849 25.9037 220.404C25.9134 218.461 25.9868 216.685 26.124 215.02C25.0489 210.9 23.6483 207.444 22.2312 194.38C21.4911 187.709 22.4211 182.166 22.2591 175.889C22.8764 155.516 27.187 131.18 29.3379 126.37L29.4667 126.372C29.1559 124.092 28.9742 121.758 28.9211 119.481C28.9353 116.649 30.9636 110.56 31.6363 104.903C32.1729 100.688 29.3598 96.1623 27.5147 91.3686C26.8403 97.3592 23.3942 103.434 18.9228 108.332C23.7925 126.927 15.4383 135.007 13.0448 149.699C13.3657 149.98 13.6221 150.26 13.8784 150.54C16.6341 153.677 17.0647 157.791 15.2997 162.771C16.1936 164.446 16.8334 165.396 17.2184 165.733C18.3101 166.521 19.2148 166.03 19.5245 168.532C18.5592 168.245 17.4653 167.901 16.5003 167.558C18.6206 168.856 19.2587 170.14 18.544 171.299L15.7153 169.883C16.4215 170.445 16.869 171.172 16.994 171.95C16.9256 172.727 16.6643 173.446 16.2098 174.108L13.5839 170.806L10.1316 165.219L12.1047 170.181C13.4503 171.749 14.1523 173.144 14.2756 174.256C14.399 175.368 13.9445 176.029 12.784 176.129C10.4772 173.441 9.06776 171.761 8.55497 171.201C7.21188 169.133 6.0624 167.011 5.10681 164.781C4.66206 163.499 4.5487 160.389 4.76726 155.337C4.70781 154.337 4.71308 153.282 4.84696 152.284C5.92188 143.521 0.510015 130.251 2.12518 116.551C2.39627 113.889 3.11847 111.23 4.22652 108.742C4.49566 106.468 6.05732 103.485 5.93813 101.54C4.87875 81.3725 10.4022 85.2029 10.1279 75.5935C9.85367 65.9842 9.17665 59.5915 13.4533 54.9691C16.7583 51.3366 24.2445 49.3002 28.8215 49.0676C29.7268 48.4656 30.7604 47.976 31.7938 47.542C34.8288 46.3502 37.9922 45.2707 41.155 44.3023C44.9789 40.0086 44.2752 38.9466 44.3132 31.3393C44.3518 23.621 66.8904 27.2857 66.8741 30.5618C66.8588 33.6158 65.0841 40.5396 69.5792 43.8046" fill="url(#paint0_linear_1203_17285)"/>
<path d="M105.059 165.031L105.753 169.817" stroke="#F29353" stroke-width="0.476407" stroke-linecap="round"/>
<path d="M108.274 165.054L108.508 170.78L107.588 172.049" stroke="#F29353" stroke-width="0.476407" stroke-linecap="round"/>
<path d="M112.01 163.413L111.854 168.968L110.607 171.4" stroke="#F29353" stroke-width="0.476407" stroke-linecap="round"/>
<path d="M101.573 162.506L100.876 159.945L100.158 162.047" stroke="#F29353" stroke-width="0.476407" stroke-linecap="round"/>
<path d="M101.662 149.054L100.941 151.213" stroke="#F29353" stroke-width="0.476407" stroke-linecap="round"/>
<path d="M87.399 77.563C87.1326 79.2818 87.8322 81.5659 89.6276 84.3058" stroke="#EE8B48" stroke-width="0.476407" stroke-linecap="round"/>
<path d="M97.7481 103.725C96.4526 105.265 95.4783 106.975 94.89 108.8" stroke="#F29353" stroke-width="0.476407" stroke-linecap="round"/>
<path d="M30.7281 217.824C29.8061 221.095 30.2444 223.71 31.9782 225.727C33.7121 227.743 34.5979 231.252 34.5066 236.253" stroke="#F08944" stroke-width="0.476407" stroke-linecap="round"/>
<path d="M43.9025 217.594C44.9182 221.438 44.6443 224.214 43.0165 225.811" stroke="#F08944" stroke-width="0.476407" stroke-linecap="round"/>
<path d="M30.8895 83.1214C27.6232 81.3735 26.1687 76.8761 25.1415 76.8106C24.1143 76.7452 22.6881 79.4432 20.6243 81.1941" stroke="#EE8B48" stroke-width="0.476407" stroke-linecap="round"/>
<path d="M26.1564 79.6485C26.2061 82.6494 25.4795 85.5871 24.1069 88.2963" stroke="#EE8B48" stroke-width="0.476407" stroke-linecap="round"/>
<path d="M26.8555 78.8789C29.3347 83.4587 33.7551 84.8191 41.3902 84.8936C49.0252 84.9681 54.8033 84.3109 55.2784 79.1562" stroke="#EE8B48" stroke-width="0.476407" stroke-linecap="round"/>
<path d="M81.5399 83.4504C84.8234 81.7667 86.3228 77.2981 87.3506 77.2528C88.3783 77.2075 89.7774 79.9334 91.8233 81.7247" stroke="#EE8B48" stroke-width="0.476407" stroke-linecap="round"/>
<path d="M85.6074 79.3547C83.0821 83.8863 78.6485 85.1606 71.0134 85.0863C63.3784 85.012 57.6076 84.2422 57.1846 79.0781" stroke="#EE8B48" stroke-width="0.476407" stroke-linecap="round"/>
<path d="M68.0312 42.5273C68.2818 44.0853 68.7264 45.5895 69.3647 47.0957" stroke="#F89451" stroke-width="0.476407" stroke-linecap="round"/>
<path d="M43.2191 42.9562C43.1479 44.2336 42.8821 45.5091 42.4869 46.7278" stroke="#F89451" stroke-width="0.476407" stroke-linecap="round"/>
<path d="M76.4543 216.887C76.3087 220.218 77.1343 222.725 78.9961 224.354C80.8578 225.983 82.1956 229.217 83.1383 234.114" stroke="#F08944" stroke-width="0.476407" stroke-linecap="round"/>
<path d="M89.5666 217.533C90.1289 221.484 89.5335 224.145 87.7152 225.627" stroke="#F08944" stroke-width="0.476407" stroke-linecap="round"/>
<path fill-rule="evenodd" clip-rule="evenodd" d="M18.4685 303.022C19.2264 305.967 22.1106 307.993 26.4793 308.87C30.848 309.748 38.6942 309.553 41.1442 308.193C43.5942 306.834 48.3757 301.951 41.6606 294.066C43.548 289.264 46.5228 285.693 41.4694 279.987C39.1993 284.119 32.1356 281.994 26.9354 280.166C25.7155 279.765 23.1016 288.661 22.2456 292.919C19.2609 298.596 17.3962 298.577 18.4685 303.022Z" fill="#C6C6C6"/>
<path fill-rule="evenodd" clip-rule="evenodd" d="M29.7772 279.07C31.7755 278.039 34.347 278.177 36.2058 279.471C36.7187 279.809 37.5484 281.148 38.836 280.829C40.8316 280.351 40.647 278.576 41.3571 277.974C42.0673 277.372 44.0392 281.993 42.2187 286.296C40.3981 290.6 44.1612 297.235 44.1612 297.235C44.1612 297.235 45.9881 305.401 39.2995 305.607C37.3699 305.698 37.4394 304.59 31.9082 304.809C28.5637 304.939 29.2631 306.665 24.2548 305.06C19.2465 303.455 17.9772 299.839 18.9503 298.021C19.9881 296.092 21.9326 292.787 23.0415 289.418C23.1958 283.878 24.3708 280.122 26.4377 278.148C26.4968 279.257 27.394 279.932 27.8441 279.937C29.2584 280.007 29.2613 279.398 29.7772 279.07Z" fill="black"/>
<path fill-rule="evenodd" clip-rule="evenodd" d="M27.3177 284.578L35.3429 287.156L28.8976 290.468L35.7652 293.09L28.0477 293.452L35.5218 290.15L28.7187 287.474L36.3216 284.118L27.3177 284.578Z" stroke="white" stroke-width="0.447154" stroke-linecap="round" stroke-linejoin="round"/>
<path fill-rule="evenodd" clip-rule="evenodd" d="M106.909 303.741C106.252 306.727 103.413 308.747 99.1005 309.644C94.7879 310.541 86.8788 310.458 84.3772 309.101C81.8754 307.8 76.9468 302.926 83.4787 295.014C81.4434 290.227 78.3733 286.703 83.2232 280.935C85.6474 285.061 92.6026 282.862 97.7559 280.977C98.9797 280.546 101.832 289.444 102.841 293.667C106.029 299.353 107.894 299.317 106.909 303.741Z" fill="#C6C6C6"/>
<path fill-rule="evenodd" clip-rule="evenodd" d="M94.9376 279.887C92.8846 278.868 90.3116 279.062 88.5051 280.373C87.9889 280.756 87.2113 282.022 85.9266 281.731C83.9354 281.267 84.6515 279.39 83.9468 278.829C83.2421 278.267 80.7768 282.951 82.6859 287.239C84.6593 291.527 81.0917 298.195 81.0917 298.195C81.0917 298.195 79.5103 306.38 86.2615 306.507C88.1905 306.528 88.1311 305.474 93.596 305.643C96.9393 305.734 96.2881 307.5 101.311 305.836C106.335 304.171 107.381 300.524 106.36 298.74C105.276 296.789 103.234 293.497 101.963 290.159C101.603 284.613 100.335 280.831 98.2215 278.924C98.152 280.032 97.3128 280.744 96.927 280.74C95.5119 280.835 95.4504 280.225 94.9376 279.887Z" fill="black"/>
<path fill-rule="evenodd" clip-rule="evenodd" d="M97.561 285.387L89.6404 288.019L96.1188 291.301L89.3552 294L97.1334 294.304L89.4978 291.01L96.2614 288.311L88.5615 285.016L97.561 285.387Z" stroke="white" stroke-width="0.447154" stroke-linecap="round" stroke-linejoin="round"/>
<g opacity="0.42" filter="url(#filter0_f_1203_17285)">
<path fill-rule="evenodd" clip-rule="evenodd" d="M45.6331 33.2889C45.8092 36.6161 46.602 45.1592 50.6403 47.1388C54.6786 49.1185 59.4336 49.11 61.8846 47.2498C64.3356 45.3895 66.745 38.9841 66.841 32.6113C67.5051 28.2948 43.9835 29.0604 45.6331 33.2889Z" fill="#915D2E" fill-opacity="0.7"/>
</g>
<path fill-rule="evenodd" clip-rule="evenodd" d="M43.4004 34.3084C43.6413 38.0219 48.7655 43.0091 50.8815 44.5284C52.9976 46.0477 58.527 46.664 60.9803 44.6425C63.4336 42.6209 65.6311 40.2642 66.1518 38.8854C66.6725 37.5067 68.294 34.4788 68.5552 33.5956C70.2157 36.3282 76.5092 24.1038 70.9735 24.9275C70.9879 21.6599 71.409 13.6892 66.2788 10.0866C61.1486 6.48401 54.4616 5.79925 47.4379 8.54456C40.4142 11.2899 39.1014 17.2566 40.6743 25.2499C41.9595 25.5413 35.854 24.3092 38.21 29.7636C39.8056 32.6063 39.7944 35.1539 43.4004 34.3084Z" fill="#FFD4AB"/>
<path d="M55.1445 44.3789L56.6195 44.3893" stroke="#EA833E" stroke-width="0.476407" stroke-linecap="round"/>
<path d="M71.6871 26.8188C69.431 28.1824 68.2691 29.2241 68.2652 30.0002" stroke="#EA833E" stroke-width="0.476407" stroke-linecap="round"/>
<path d="M70.0084 28.6929L70.0017 30.0253L68.2524 32.1178" stroke="#EA833E" stroke-width="0.476407" stroke-linecap="round"/>
<path d="M39.0977 27.4609C40.381 27.8062 41.4046 28.7033 41.7845 29.8158" stroke="#EA833E" stroke-width="0.476407" stroke-linecap="round"/>
<path d="M40.373 28.4805L40.6841 30.6485L42.2871 31.941" stroke="#EA833E" stroke-width="0.476407" stroke-linecap="round"/>
<path opacity="0.75" fill-rule="evenodd" clip-rule="evenodd" d="M79.6635 126.572C70.7953 131.58 33.5387 130.611 29.3326 126.363C26.613 117.109 30.9199 111.559 31.3164 103.935C31.5035 100.337 28.7311 97.0954 27.8632 91.7258C27.0838 88.8149 26.6995 86.3503 26.7102 84.3317C30.8907 80.5155 33.0025 74.572 33.0454 66.5012C33.1074 54.8326 30.5523 51.9625 29.0303 48.8879C28.6748 48.328 30.5027 47.4136 32.5247 46.73C34.8566 45.9415 37.3345 44.801 37.6664 45.2559C37.6608 46.3049 42.453 61.4601 55.5004 61.5804C68.5479 61.7008 72.6287 59.1552 76.2035 45.5063C76.0567 45.1123 77.7837 45.4581 80.674 46.1523C83.5643 46.8465 85.7712 47.503 85.1935 47.8115C84.2943 48.1255 83.9417 50.4 81.7206 64.8202C79.4995 79.2404 84.1505 79.3679 86.7511 82.0288C86.8141 84.199 86.4364 86.7139 85.618 89.5735C81.4151 97.8149 79.9512 104.43 81.2264 109.418C83.1391 116.901 83.398 123.523 79.6635 126.572Z" fill="#FFFAF9"/>
<path opacity="0.85" fill-rule="evenodd" clip-rule="evenodd" d="M57.2247 179.526L57.8375 174.264L59.4568 174.258L60.0619 179.552C72.9363 179.711 82.0011 179.15 87.2561 177.868C91.4094 176.855 94.038 174.096 95.1419 169.592C92.3531 156.16 89.7481 146.468 87.3267 140.516C84.9618 134.704 81.2177 126.58 79.6123 126.566C55.743 132.101 33.5779 128.471 29.4581 126.435C28.1474 126.346 27.5694 130.222 26.6861 133.589C25.3154 138.814 22.3447 161.579 21.8794 170.743C21.8439 177.418 33.6257 180.346 57.2247 179.526Z" fill="black"/>
<path d="M69.7432 24.8678C69.9337 23.3562 70.3802 22.319 69.4132 19.0341C68.2201 16.2718 65.5951 14.3538 65.8053 11.0211C63.7602 9.6321 59.3577 12.2642 54.9479 12.7948C50.5382 13.3253 41.8328 11.2667 42.4837 17.3787C43.4527 21.9388 42.0633 22.2441 42.4976 25.9401L40.894 25.3822C39.6096 23.9915 37.0823 17.0479 38.6589 9.58403C40.2355 2.12018 58.687 -5.19514 67.2802 7.86642C75.743 5.7141 71.542 23.1962 71.3459 24.8701L69.7432 24.8678Z" fill="black"/>
<defs>
<filter id="filter0_f_1203_17285" x="43.8782" y="28.0511" width="24.6479" height="22.2534" filterUnits="userSpaceOnUse" color-interpolation-filters="sRGB">
<feFlood flood-opacity="0" result="BackgroundImageFix"/>
<feBlend mode="normal" in="SourceGraphic" in2="BackgroundImageFix" result="shape"/>
<feGaussianBlur stdDeviation="0.835801" result="effect1_foregroundBlur_1203_17285"/>
</filter>
<linearGradient id="paint0_linear_1203_17285" x1="57.9877" y1="-12.5978" x2="66.9023" y2="357.77" gradientUnits="userSpaceOnUse">
<stop stop-color="#FFD6A7"/>
<stop offset="0.49" stop-color="#FFCFB0"/>
<stop offset="1" stop-color="#FFB783"/>
</linearGradient>
</defs>
</svg>
