<svg width="50" height="50" viewBox="0 0 50 50" fill="none" xmlns="http://www.w3.org/2000/svg">
<rect width="50" height="50" rx="12" fill="#21841C" fill-opacity="0.24"/>
<g clip-path="url(#clip0_1192_10179)">
<path d="M26.8379 28.4039V18.202H23.0879V28.402C21.7726 29.0845 20.8623 30.4458 20.8623 32.0302C20.8784 33.1073 21.3177 34.1349 22.0851 34.891C22.8525 35.6471 23.8865 36.071 24.9638 36.0711C26.0412 36.0712 27.0753 35.6476 27.8429 34.8917C28.6105 34.1358 29.0499 33.1083 29.0663 32.0311C29.0663 30.4467 28.157 29.0855 26.8388 28.4048L26.8379 28.4039ZM29.6504 15.0352C29.6504 12.4514 27.5466 10.3477 24.9629 10.3477C22.3791 10.3477 20.2754 12.4523 20.2754 15.0352V26.9667C19.5725 27.6092 19.0114 28.3913 18.628 29.263C18.2446 30.1348 18.0473 31.0769 18.0488 32.0292C18.0488 35.8411 21.152 38.9452 24.9638 38.9452C28.7757 38.9452 31.8779 35.842 31.8779 32.0292C31.8779 30.0736 31.0548 28.2511 29.6513 26.9648V15.037L29.6504 15.0352ZM30.002 32.032C30 33.3676 29.4683 34.6479 28.5237 35.592C27.579 36.5361 26.2985 37.067 24.9629 37.0683C23.6275 37.0665 22.3473 36.5353 21.403 35.591C20.4587 34.6467 19.9274 33.3665 19.9257 32.0311C19.9257 30.3483 20.7657 28.8033 22.1532 27.8705V15.037C22.1532 13.4873 23.4123 12.2245 24.9629 12.2245C26.5135 12.2245 27.7754 13.4864 27.7754 15.037V27.8714C28.4604 28.3277 29.0221 28.9462 29.4105 29.6719C29.799 30.3976 30.0021 31.2089 30.002 32.032ZM31.1363 18.202L35.3551 20.6377V15.7683L31.1363 18.202Z" fill="#21841C"/>
</g>
<defs>
<clipPath id="clip0_1192_10179">
<rect width="30" height="30" fill="white" transform="translate(10.4316 10.1133)"/>
</clipPath>
</defs>
</svg>
