<svg width="30" height="30" viewBox="0 0 30 30" fill="none" xmlns="http://www.w3.org/2000/svg">
<g clip-path="url(#clip0_887_17132)">
<path d="M17.8162 2.86335C18.0705 2.82102 18.3308 2.83157 18.5808 2.89434C18.8308 2.95711 19.0652 3.07076 19.2693 3.22818C19.4734 3.3856 19.6428 3.58342 19.7671 3.80927C19.8913 4.03513 19.9676 4.28417 19.9913 4.54085L20 4.71335V6.2496H22.5C23.1307 6.2494 23.7382 6.4876 24.2007 6.91647C24.6632 7.34533 24.9464 7.93315 24.9938 8.5621L25 8.7496V21.2496C24.9999 21.8801 24.7615 22.4873 24.3327 22.9495C23.9039 23.4117 23.3162 23.6948 22.6875 23.7421L22.5 23.7496H20V25.2871C19.9998 25.5448 19.9465 25.7997 19.8435 26.0359C19.7404 26.2721 19.5897 26.4845 19.4008 26.6599C19.212 26.8352 18.989 26.9698 18.7458 27.0551C18.5027 27.1405 18.2445 27.1747 17.9875 27.1558L17.8162 27.1358L7.08875 25.3483C6.53901 25.2568 6.03562 24.9842 5.65854 24.5738C5.28146 24.1635 5.05232 23.6388 5.0075 23.0833L5 22.8821V7.1171C4.99994 6.55994 5.18601 6.01873 5.52865 5.57939C5.87129 5.14006 6.35087 4.82776 6.89125 4.6921L7.08875 4.65085L17.8162 2.86335ZM17.5 5.45085L7.5 7.1171V22.8821L17.5 24.5483V5.45085ZM22.5 8.7496H20V21.2496H22.5V8.7496ZM14.375 13.1246C14.8723 13.1246 15.3492 13.3221 15.7008 13.6738C16.0525 14.0254 16.25 14.5023 16.25 14.9996C16.25 15.4969 16.0525 15.9738 15.7008 16.3254C15.3492 16.6771 14.8723 16.8746 14.375 16.8746C13.8777 16.8746 13.4008 16.6771 13.0492 16.3254C12.6975 15.9738 12.5 15.4969 12.5 14.9996C12.5 14.5023 12.6975 14.0254 13.0492 13.6738C13.4008 13.3221 13.8777 13.1246 14.375 13.1246Z" fill="#A81717"/>
</g>
<defs>
<clipPath id="clip0_887_17132">
<rect width="30" height="30" fill="white"/>
</clipPath>
</defs>
</svg>
