<svg width="253" height="78" viewBox="0 0 253 78" fill="none" xmlns="http://www.w3.org/2000/svg">
<path d="M41.1308 44.7616C25.2406 47.052 14.0381 44.7324 1 36.452V78H252V26.2249C238.323 10.9979 233.146 9.53278 212 3.85291C188.424 -2.47954 182.874 4.50459 158.605 8.3273C130.491 12.7554 111.958 -5.87413 85.6395 3.85291C62.4276 12.432 65.9898 41.1785 41.1308 44.7616Z" fill="url(#paint0_linear_1192_10176)"/>
<path d="M1 36.452C14.0381 44.7324 25.2406 47.052 41.1308 44.7616C65.9898 41.1785 62.4276 12.432 85.6395 3.85291C111.958 -5.87413 130.491 12.7554 158.605 8.3273C182.874 4.50459 190.702 -2.47924 214.277 3.85322C235.424 9.53309 238.323 10.9979 252 26.2249" stroke="#21841C"/>
<defs>
<linearGradient id="paint0_linear_1192_10176" x1="126.5" y1="0.862672" x2="126.5" y2="78.0003" gradientUnits="userSpaceOnUse">
<stop stop-color="#21841C" stop-opacity="0.5"/>
<stop offset="1" stop-color="#DDF2F4" stop-opacity="0"/>
</linearGradient>
</defs>
</svg>
