<svg width="50" height="50" viewBox="0 0 50 50" fill="none" xmlns="http://www.w3.org/2000/svg">
<rect width="50" height="50" rx="12" fill="#FBF0F3"/>
<path fill-rule="evenodd" clip-rule="evenodd" d="M25.0002 13.101C32.2497 9.07921 36.6831 11.389 38.5413 15.3491C39.5344 17.4656 40.334 21.2202 39.8595 25.1381H33.1415L32.2644 23.1577C31.9015 22.2222 30.687 22.1241 30.2143 23.027L29.4986 24.3934L28.0325 18.0738C27.7968 16.8014 26.1169 16.7259 25.7999 17.9924L24.2298 24.2527L23.7098 22.1675C23.4786 21.2265 22.3585 20.9188 21.7483 21.6661L18.9055 25.1381H10.1405C9.66595 21.2202 10.4656 17.4656 11.4591 15.3491C13.3169 11.389 17.7502 9.07921 25.0002 13.101ZM39.3784 27.6258C37.8248 33.3705 29.8172 40.0753 25.0002 41C20.1832 40.0749 12.1756 33.3709 10.622 27.6262H19.4159C19.7934 27.6262 20.1281 27.4283 20.3373 27.124L22.0495 25.0329L23.1169 29.3361C23.4197 30.5635 25.0268 30.5509 25.3311 29.3403L26.865 23.2287L27.9717 27.9998C28.2309 29.1245 29.6388 29.2722 30.1092 28.2541L31.1257 26.3124L31.3934 26.9165C31.5895 27.3611 31.9982 27.6208 32.4246 27.6212L39.3784 27.6258Z" fill="#A81717"/>
</svg>
