<svg width="253" height="78" viewBox="0 0 253 78" fill="none" xmlns="http://www.w3.org/2000/svg">
<path d="M41.1308 49.9653C25.2406 51.8971 14.0381 49.9407 1 42.9567V77.9999H252V34.3307C238.323 21.4876 238.123 6.23466 216.977 1.44403C193.401 -3.89701 182.874 16.0109 158.605 19.2352C130.491 22.97 111.958 7.25712 85.6395 15.4613C62.4276 22.6972 65.9898 46.9432 41.1308 49.9653Z" fill="url(#paint0_linear_1192_10116)" fill-opacity="0.18"/>
<path d="M1 42.9567C14.0381 49.9407 25.2406 51.8971 41.1308 49.9653C65.9898 46.9432 62.4276 22.6972 85.6395 15.4613C111.958 7.25712 130.491 22.97 158.605 19.2352C182.874 16.0109 193.401 -3.89701 216.977 1.44403C238.123 6.23466 238.323 21.4877 252 34.3307" stroke="#F9AEF1"/>
<defs>
<linearGradient id="paint0_linear_1192_10116" x1="121.422" y1="19.9476" x2="121.823" y2="90.5749" gradientUnits="userSpaceOnUse">
<stop stop-color="#FF83F3"/>
<stop offset="1" stop-color="white"/>
</linearGradient>
</defs>
</svg>
