<svg width="253" height="89" viewBox="0 0 253 89" fill="none" xmlns="http://www.w3.org/2000/svg">
<path d="M52.5446 39.2146C32.3624 36.5461 18.923 38.5062 1 46.7322V88.7214H252V1C236.247 6.87163 228.157 11.8358 211.661 16.0353C185.022 22.8166 164.916 10.1673 140.693 21.6735C119.6 31.693 125.105 58.9232 101.101 61.7675C79.6378 64.3108 73.9568 42.0457 52.5446 39.2146Z" fill="url(#paint0_linear_1192_10152)" fill-opacity="0.4"/>
<path d="M1 46.7322C18.923 38.5062 32.3624 36.5461 52.5446 39.2146C73.9568 42.0457 79.6378 64.3108 101.101 61.7675C125.105 58.9232 119.6 31.693 140.693 21.6735C164.916 10.1673 185.022 22.8166 211.661 16.0353C228.157 11.8358 236.247 6.87163 252 1" stroke="#A81717"/>
<defs>
<linearGradient id="paint0_linear_1192_10152" x1="127.234" y1="-23.8855" x2="127.234" y2="84.3664" gradientUnits="userSpaceOnUse">
<stop stop-color="#A81717"/>
<stop offset="1" stop-color="#A81717" stop-opacity="0"/>
</linearGradient>
</defs>
</svg>
