<svg width="51" height="48" viewBox="0 0 51 48" fill="none" xmlns="http://www.w3.org/2000/svg">
<path d="M9.45595 45.4059C9.2122 46.7934 10.5809 47.8778 11.7872 47.259L25.5059 40.209L39.2216 47.259C40.4278 47.8778 41.7966 46.7934 41.5528 45.409L38.9591 30.6278L49.9653 20.1403C50.9966 19.159 50.4653 17.3653 49.0841 17.1715L33.7778 14.9965L26.9528 1.47467C26.8228 1.20057 26.6177 0.96899 26.3613 0.806832C26.1049 0.644673 25.8078 0.558594 25.5044 0.558594C25.201 0.558594 24.9039 0.644673 24.6475 0.806832C24.3911 0.96899 24.186 1.20057 24.0559 1.47467L17.2309 14.9997L1.9247 17.1747C0.546573 17.3684 0.0121982 19.1622 1.04032 20.1434L12.0497 30.6309L9.45595 45.4122V45.4059ZM24.7841 36.759L13.2653 42.6778L15.4341 30.3122C15.4863 30.0275 15.4671 29.7344 15.3782 29.4589C15.2893 29.1835 15.1335 28.9345 14.9247 28.734L5.84345 20.0778L18.5059 18.2778C18.7677 18.2369 19.0159 18.1339 19.2296 17.9773C19.4433 17.8207 19.6163 17.6151 19.7341 17.3778L25.4997 5.94654L31.2716 17.3778C31.3894 17.6151 31.5624 17.8207 31.7761 17.9773C31.9898 18.1339 32.2379 18.2369 32.4997 18.2778L45.1622 20.0747L36.0809 28.7309C35.8717 28.9317 35.7156 29.1812 35.6267 29.4572C35.5378 29.7333 35.5188 30.027 35.5716 30.3122L37.7403 42.6778L26.2216 36.759C25.9991 36.6435 25.752 36.5831 25.5013 36.5831C25.2505 36.5831 25.0066 36.6435 24.7841 36.759Z" fill="#272EA7" fill-opacity="0.4"/>
</svg>
