<svg width="20" height="20" viewBox="0 0 20 20" fill="none" xmlns="http://www.w3.org/2000/svg">
<mask id="mask0_887_17745" style="mask-type:luminance" maskUnits="userSpaceOnUse" x="0" y="0" width="20" height="20">
<path d="M20 0H0V20H20V0Z" fill="white"/>
</mask>
<g mask="url(#mask0_887_17745)">
<path d="M12.9531 10.8385C13.5781 10.8385 14.1281 10.4969 14.4115 9.98021L17.3948 4.57187C17.7031 4.02187 17.3031 3.33854 16.6698 3.33854H4.33646L3.55312 1.67188H0.828125V3.33854H2.49479L5.49479 9.66354L4.36979 11.6969C3.76146 12.8135 4.56146 14.1719 5.82812 14.1719H15.8281V12.5052H5.82812L6.74479 10.8385H12.9531ZM5.12812 5.00521H15.2531L12.9531 9.17188H7.10312L5.12812 5.00521ZM5.82812 15.0052C4.91146 15.0052 4.16979 15.7552 4.16979 16.6719C4.16979 17.5885 4.91146 18.3385 5.82812 18.3385C6.74479 18.3385 7.49479 17.5885 7.49479 16.6719C7.49479 15.7552 6.74479 15.0052 5.82812 15.0052ZM14.1615 15.0052C13.2448 15.0052 12.5031 15.7552 12.5031 16.6719C12.5031 17.5885 13.2448 18.3385 14.1615 18.3385C15.0781 18.3385 15.8281 17.5885 15.8281 16.6719C15.8281 15.7552 15.0781 15.0052 14.1615 15.0052Z" fill="#0B0B0B"/>
<path d="M12.9531 10.8385C13.5781 10.8385 14.1281 10.4969 14.4115 9.98021L17.3948 4.57187C17.7031 4.02187 17.3031 3.33854 16.6698 3.33854H4.33646L3.55312 1.67188H0.828125V3.33854H2.49479L5.49479 9.66354L4.36979 11.6969C3.76146 12.8135 4.56146 14.1719 5.82812 14.1719H15.8281V12.5052H5.82812L6.74479 10.8385H12.9531ZM5.12812 5.00521H15.2531L12.9531 9.17188H7.10312L5.12812 5.00521ZM5.82812 15.0052C4.91146 15.0052 4.16979 15.7552 4.16979 16.6719C4.16979 17.5885 4.91146 18.3385 5.82812 18.3385C6.74479 18.3385 7.49479 17.5885 7.49479 16.6719C7.49479 15.7552 6.74479 15.0052 5.82812 15.0052ZM14.1615 15.0052C13.2448 15.0052 12.5031 15.7552 12.5031 16.6719C12.5031 17.5885 13.2448 18.3385 14.1615 18.3385C15.0781 18.3385 15.8281 17.5885 15.8281 16.6719C15.8281 15.7552 15.0781 15.0052 14.1615 15.0052Z" fill="black" fill-opacity="0.2"/>
<path d="M12.9531 10.8385C13.5781 10.8385 14.1281 10.4969 14.4115 9.98021L17.3948 4.57187C17.7031 4.02187 17.3031 3.33854 16.6698 3.33854H4.33646L3.55312 1.67188H0.828125V3.33854H2.49479L5.49479 9.66354L4.36979 11.6969C3.76146 12.8135 4.56146 14.1719 5.82812 14.1719H15.8281V12.5052H5.82812L6.74479 10.8385H12.9531ZM5.12812 5.00521H15.2531L12.9531 9.17188H7.10312L5.12812 5.00521ZM5.82812 15.0052C4.91146 15.0052 4.16979 15.7552 4.16979 16.6719C4.16979 17.5885 4.91146 18.3385 5.82812 18.3385C6.74479 18.3385 7.49479 17.5885 7.49479 16.6719C7.49479 15.7552 6.74479 15.0052 5.82812 15.0052ZM14.1615 15.0052C13.2448 15.0052 12.5031 15.7552 12.5031 16.6719C12.5031 17.5885 13.2448 18.3385 14.1615 18.3385C15.0781 18.3385 15.8281 17.5885 15.8281 16.6719C15.8281 15.7552 15.0781 15.0052 14.1615 15.0052Z" fill="black" fill-opacity="0.2"/>
<path d="M12.9531 10.8385C13.5781 10.8385 14.1281 10.4969 14.4115 9.98021L17.3948 4.57187C17.7031 4.02187 17.3031 3.33854 16.6698 3.33854H4.33646L3.55312 1.67188H0.828125V3.33854H2.49479L5.49479 9.66354L4.36979 11.6969C3.76146 12.8135 4.56146 14.1719 5.82812 14.1719H15.8281V12.5052H5.82812L6.74479 10.8385H12.9531ZM5.12812 5.00521H15.2531L12.9531 9.17188H7.10312L5.12812 5.00521ZM5.82812 15.0052C4.91146 15.0052 4.16979 15.7552 4.16979 16.6719C4.16979 17.5885 4.91146 18.3385 5.82812 18.3385C6.74479 18.3385 7.49479 17.5885 7.49479 16.6719C7.49479 15.7552 6.74479 15.0052 5.82812 15.0052ZM14.1615 15.0052C13.2448 15.0052 12.5031 15.7552 12.5031 16.6719C12.5031 17.5885 13.2448 18.3385 14.1615 18.3385C15.0781 18.3385 15.8281 17.5885 15.8281 16.6719C15.8281 15.7552 15.0781 15.0052 14.1615 15.0052Z" fill="black" fill-opacity="0.2"/>
<path d="M12.9531 10.8385C13.5781 10.8385 14.1281 10.4969 14.4115 9.98021L17.3948 4.57187C17.7031 4.02187 17.3031 3.33854 16.6698 3.33854H4.33646L3.55312 1.67188H0.828125V3.33854H2.49479L5.49479 9.66354L4.36979 11.6969C3.76146 12.8135 4.56146 14.1719 5.82812 14.1719H15.8281V12.5052H5.82812L6.74479 10.8385H12.9531ZM5.12812 5.00521H15.2531L12.9531 9.17188H7.10312L5.12812 5.00521ZM5.82812 15.0052C4.91146 15.0052 4.16979 15.7552 4.16979 16.6719C4.16979 17.5885 4.91146 18.3385 5.82812 18.3385C6.74479 18.3385 7.49479 17.5885 7.49479 16.6719C7.49479 15.7552 6.74479 15.0052 5.82812 15.0052ZM14.1615 15.0052C13.2448 15.0052 12.5031 15.7552 12.5031 16.6719C12.5031 17.5885 13.2448 18.3385 14.1615 18.3385C15.0781 18.3385 15.8281 17.5885 15.8281 16.6719C15.8281 15.7552 15.0781 15.0052 14.1615 15.0052Z" fill="black" fill-opacity="0.2"/>
<path d="M12.9531 10.8385C13.5781 10.8385 14.1281 10.4969 14.4115 9.98021L17.3948 4.57187C17.7031 4.02187 17.3031 3.33854 16.6698 3.33854H4.33646L3.55312 1.67188H0.828125V3.33854H2.49479L5.49479 9.66354L4.36979 11.6969C3.76146 12.8135 4.56146 14.1719 5.82812 14.1719H15.8281V12.5052H5.82812L6.74479 10.8385H12.9531ZM5.12812 5.00521H15.2531L12.9531 9.17188H7.10312L5.12812 5.00521ZM5.82812 15.0052C4.91146 15.0052 4.16979 15.7552 4.16979 16.6719C4.16979 17.5885 4.91146 18.3385 5.82812 18.3385C6.74479 18.3385 7.49479 17.5885 7.49479 16.6719C7.49479 15.7552 6.74479 15.0052 5.82812 15.0052ZM14.1615 15.0052C13.2448 15.0052 12.5031 15.7552 12.5031 16.6719C12.5031 17.5885 13.2448 18.3385 14.1615 18.3385C15.0781 18.3385 15.8281 17.5885 15.8281 16.6719C15.8281 15.7552 15.0781 15.0052 14.1615 15.0052Z" fill="black" fill-opacity="0.2"/>
<path d="M12.9531 10.8385C13.5781 10.8385 14.1281 10.4969 14.4115 9.98021L17.3948 4.57187C17.7031 4.02187 17.3031 3.33854 16.6698 3.33854H4.33646L3.55312 1.67188H0.828125V3.33854H2.49479L5.49479 9.66354L4.36979 11.6969C3.76146 12.8135 4.56146 14.1719 5.82812 14.1719H15.8281V12.5052H5.82812L6.74479 10.8385H12.9531ZM5.12812 5.00521H15.2531L12.9531 9.17188H7.10312L5.12812 5.00521ZM5.82812 15.0052C4.91146 15.0052 4.16979 15.7552 4.16979 16.6719C4.16979 17.5885 4.91146 18.3385 5.82812 18.3385C6.74479 18.3385 7.49479 17.5885 7.49479 16.6719C7.49479 15.7552 6.74479 15.0052 5.82812 15.0052ZM14.1615 15.0052C13.2448 15.0052 12.5031 15.7552 12.5031 16.6719C12.5031 17.5885 13.2448 18.3385 14.1615 18.3385C15.0781 18.3385 15.8281 17.5885 15.8281 16.6719C15.8281 15.7552 15.0781 15.0052 14.1615 15.0052Z" fill="black" fill-opacity="0.2"/>
<path d="M12.9531 10.8385C13.5781 10.8385 14.1281 10.4969 14.4115 9.98021L17.3948 4.57187C17.7031 4.02187 17.3031 3.33854 16.6698 3.33854H4.33646L3.55312 1.67188H0.828125V3.33854H2.49479L5.49479 9.66354L4.36979 11.6969C3.76146 12.8135 4.56146 14.1719 5.82812 14.1719H15.8281V12.5052H5.82812L6.74479 10.8385H12.9531ZM5.12812 5.00521H15.2531L12.9531 9.17188H7.10312L5.12812 5.00521ZM5.82812 15.0052C4.91146 15.0052 4.16979 15.7552 4.16979 16.6719C4.16979 17.5885 4.91146 18.3385 5.82812 18.3385C6.74479 18.3385 7.49479 17.5885 7.49479 16.6719C7.49479 15.7552 6.74479 15.0052 5.82812 15.0052ZM14.1615 15.0052C13.2448 15.0052 12.5031 15.7552 12.5031 16.6719C12.5031 17.5885 13.2448 18.3385 14.1615 18.3385C15.0781 18.3385 15.8281 17.5885 15.8281 16.6719C15.8281 15.7552 15.0781 15.0052 14.1615 15.0052Z" fill="black" fill-opacity="0.2"/>
<path d="M12.9531 10.8385C13.5781 10.8385 14.1281 10.4969 14.4115 9.98021L17.3948 4.57187C17.7031 4.02187 17.3031 3.33854 16.6698 3.33854H4.33646L3.55312 1.67188H0.828125V3.33854H2.49479L5.49479 9.66354L4.36979 11.6969C3.76146 12.8135 4.56146 14.1719 5.82812 14.1719H15.8281V12.5052H5.82812L6.74479 10.8385H12.9531ZM5.12812 5.00521H15.2531L12.9531 9.17188H7.10312L5.12812 5.00521ZM5.82812 15.0052C4.91146 15.0052 4.16979 15.7552 4.16979 16.6719C4.16979 17.5885 4.91146 18.3385 5.82812 18.3385C6.74479 18.3385 7.49479 17.5885 7.49479 16.6719C7.49479 15.7552 6.74479 15.0052 5.82812 15.0052ZM14.1615 15.0052C13.2448 15.0052 12.5031 15.7552 12.5031 16.6719C12.5031 17.5885 13.2448 18.3385 14.1615 18.3385C15.0781 18.3385 15.8281 17.5885 15.8281 16.6719C15.8281 15.7552 15.0781 15.0052 14.1615 15.0052Z" fill="black" fill-opacity="0.2"/>
</g>
</svg>
