<svg width="672" height="569" viewBox="0 0 672 569" fill="none" xmlns="http://www.w3.org/2000/svg">
<path opacity="0.3" d="M669 440.5C669 468.225 656.405 488.234 635.558 502.813C614.583 517.482 585.256 526.633 552.057 532.26C496.699 541.642 431.417 541.108 377.936 540.671C367.263 540.583 357.06 540.5 347.5 540.5C318.638 540.5 282.412 545.381 244.499 550.86C240.534 551.433 236.549 552.013 232.551 552.594C198.247 557.585 162.987 562.715 130.601 564.981C94.3736 567.515 62.1447 566.426 39.0576 557.786C27.5638 553.485 18.4677 547.36 12.2358 538.998C6.01821 530.655 2.5 519.882 2.5 506C2.5 492.113 6.80291 473.789 14.7264 452.217C22.6334 430.69 34.0765 406.111 48.1972 379.772C76.4374 327.098 115.306 267.539 157.767 211.536C200.233 155.526 246.235 103.149 288.719 64.8028C309.964 45.6276 330.275 30.0104 348.779 19.2005C367.33 8.36305 383.825 2.5 397.5 2.5C425.06 2.5 455.878 22.1848 486.856 54.4442C517.72 86.5844 548.27 130.71 575.299 178.506C602.319 226.287 625.765 277.639 642.45 324.169C659.159 370.767 669 412.293 669 440.5Z" stroke="#272EA7" stroke-width="5"/>
</svg>
