<svg width="1014" height="914" viewBox="0 0 1014 914" fill="none" xmlns="http://www.w3.org/2000/svg">
<path opacity="0.3" d="M1011 674C1011 725.528 992.779 765.752 962.236 797.206C931.632 828.721 888.555 851.53 838.755 867.912C739.129 900.684 613.345 907.5 509 907.5C480.222 907.5 449.776 908.269 418.659 909.055C336.554 911.129 249.77 913.321 176.602 901.817C126.202 893.892 82.6595 879.511 51.7509 854.382C20.9697 829.357 2.5 793.497 2.5 742C2.5 690.39 25.4012 618.339 63.2888 539.068C101.135 459.884 153.789 373.795 212.97 294.205C272.156 214.608 337.812 141.592 401.636 88.5021C465.57 35.3206 527.236 2.5 578.5 2.5C629.772 2.5 682.469 31.0914 732.841 77.7885C783.168 124.443 830.874 188.899 872.124 259.969C954.674 402.193 1011 570.245 1011 674Z" stroke="#272EA7" stroke-width="5"/>
</svg>
