<svg width="1186" height="1094" viewBox="0 0 1186 1094" fill="none" xmlns="http://www.w3.org/2000/svg">
<path opacity="0.3" d="M1183 780C1183 907.355 1098.27 985.179 980.703 1031.29C863.089 1077.41 713.207 1091.5 584.5 1091.5H579.846C452.074 1091.5 308.59 1091.51 196.557 1060.21C139.895 1044.38 91.5196 1020.6 57.323 984.961C23.1885 949.392 3 901.826 3 838C3 774.122 27.6004 689.961 68.7326 599.483C109.837 509.067 167.34 412.581 232.893 324.123C298.452 235.658 372.005 155.3 445.177 97.085C518.424 38.8103 590.947 3 654.5 3C718.069 3 782.901 35.2069 844.535 87.9654C906.139 140.698 964.305 213.757 1014.49 294.949C1114.91 457.413 1183 651.825 1183 780Z" stroke="#272EA7" stroke-width="5"/>
</svg>
