<svg width="1329" height="1200" viewBox="0 0 1329 1200" fill="none" xmlns="http://www.w3.org/2000/svg">
<path opacity="0.3" d="M1326 641.5C1326 793.635 1313.43 932.106 1263.13 1032.5C1238.01 1082.63 1203.51 1123.21 1156.49 1151.27C1109.46 1179.34 1049.73 1195 974 1195C944.487 1195 911.567 1195.38 876.175 1195.78C728.904 1197.48 538.844 1199.66 373.471 1177.14C270.909 1163.17 178.135 1139.74 111.067 1100.97C44.1017 1062.26 3 1008.43 3 933.5C3 857.882 27.2595 761.843 68.5385 660.201C109.801 558.601 167.994 451.585 235.688 354.06C303.388 256.526 380.534 168.565 459.669 105.015C538.852 41.427 619.749 2.5 695 2.5C846.277 2.5 1004.05 86.3578 1124.08 208.387C1244.12 330.415 1326 490.195 1326 641.5Z" stroke="#272EA7" stroke-width="5"/>
</svg>
