<svg width="846" height="745" viewBox="0 0 846 745" fill="none" xmlns="http://www.w3.org/2000/svg">
<path opacity="0.3" d="M843 566.5C843 606.55 827.471 636.62 801.643 659.332C775.724 682.125 739.334 697.583 697.593 708.025C614.095 728.912 510.163 729.5 428.5 729.5C393.76 729.5 354.435 732.355 314.149 735.281C306.989 735.8 299.799 736.323 292.599 736.831C244.818 740.207 196.56 742.994 153.433 740.704C110.251 738.41 72.5716 731.036 45.7453 714.352C19.1323 697.801 3 671.97 3 632C3 591.837 23.6732 532.425 57.5917 465.61C91.4519 398.909 138.318 325.197 190.293 256.559C242.273 187.915 299.302 124.424 353.462 78.1221C380.542 54.971 406.855 36.1613 431.416 23.1502C456.001 10.1261 478.666 3 498.5 3C538.296 3 579.774 27.5974 619.798 67.7524C659.756 107.841 697.899 163.073 731.008 223.501C764.107 283.914 792.121 349.421 811.854 409.987C831.602 470.596 843 526.082 843 566.5Z" stroke="#272EA7" stroke-width="5"/>
</svg>
